<svg width="26" height="26" viewBox="0 0 26 26" fill="none" xmlns="http://www.w3.org/2000/svg">
<path d="M15.2994 12.9997L25.5236 2.77555C26.1588 2.14088 26.1588 1.11109 25.5236 0.476413C24.8884 -0.158804 23.8597 -0.158804 23.2244 0.476413L13.0003 10.7006L2.77555 0.476413C2.14033 -0.158804 1.11163 -0.158804 0.476413 0.476413C-0.158804 1.11109 -0.158804 2.14088 0.476413 2.77555L10.7011 12.9997L0.476413 23.2239C-0.158804 23.8586 -0.158804 24.8884 0.476413 25.523C0.794021 25.8401 1.21027 25.9989 1.62598 25.9989C2.04169 25.9989 2.45794 25.8401 2.77555 25.5225L13.0003 15.2983L23.2244 25.5225C23.5421 25.8401 23.9583 25.9989 24.374 25.9989C24.7897 25.9989 25.206 25.8401 25.5236 25.5225C26.1588 24.8878 26.1588 23.858 25.5236 23.2234L15.2994 12.9997Z" fill="#F7654A"/>
</svg>
